{
  "accessors": [
    {
      "bufferView": 2,
      "componentType": 5126,
      "count": 13421,
      "max": [
        0.9997559785842896,
        0.9997559785842896,
        0.15241999924182892
      ],
      "min": [
        -0.00024399999529123306,
        -0.00024399999529123306,
        0.005078000016510487
      ],
      "type": "VEC3"
    },
    {
      "bufferView": 2,
      "byteOffset": 161052,
      "componentType": 5126,
      "count": 13421,
      "max": [
        0.9087501168251038,
        0.9372382164001465,
        0.9999873638153076
      ],
      "min": [
        -0.9293431043624878,
        -0.9729836583137512,
        0.20343297719955444
      ],
      "type": "VEC3"
    },
    {
      "bufferView": 3,
      "componentType": 5126,
      "count": 13421,
      "max": [
        0.9999998211860657,
        0.9975286722183228,
        0.9568052887916565,
        1.0
      ],
      "min": [
        -0.9869782328605652,
        -0.978886604309082,
        -0.9329941868782043,
        -1.0
      ],
      "type": "VEC4"
    },
    {
      "bufferView": 1,
      "componentType": 5126,
      "count": 13421,
      "max": [
        1.0,
        1.0
      ],
      "min": [
        0.0,
        0.0
      ],
      "type": "VEC2"
    },
    {
      "bufferView": 0,
      "componentType": 5125,
      "count": 79485,
      "type": "SCALAR"
    }
  ],
  "asset": {
    "extras": {
      "author": "klrxyz (https://sketchfab.com/klrxyz)",
      "license": "SKETCHFAB Standard (https://sketchfab.com/licenses)",
      "source": "https://sketchfab.com/3d-models/snow-world-3cb18b6b0dd946ba91af0c9defd4c151",
      "title": "Snow World"
    },
    "generator": "Sketchfab-12.68.0",
    "version": "2.0"
  },
  "bufferViews": [
    {
      "buffer": 0,
      "byteLength": 317940,
      "name": "floatBufferViews",
      "target": 34963
    },
    {
      "buffer": 0,
      "byteLength": 107368,
      "byteOffset": 317940,
      "byteStride": 8,
      "name": "floatBufferViews",
      "target": 34962
    },
    {
      "buffer": 0,
      "byteLength": 322104,
      "byteOffset": 425308,
      "byteStride": 12,
      "name": "floatBufferViews",
      "target": 34962
    },
    {
      "buffer": 0,
      "byteLength": 214736,
      "byteOffset": 747412,
      "byteStride": 16,
      "name": "floatBufferViews",
      "target": 34962
    }
  ],
  "buffers": [
    {
      "byteLength": 962148,
      "uri": "scene.bin"
    }
  ],
  "images": [
    {
      "uri": "textures/fullmesh_baseColor.jpeg"
    },
    {
      "uri": "textures/fullmesh_metallicRoughness.png"
    },
    {
      "uri": "textures/fullmesh_normal.png"
    }
  ],
  "materials": [
    {
      "doubleSided": true,
      "emissiveFactor": [
        0.5035143400884058,
        0.5035143400884058,
        0.5035143400884058
      ],
      "emissiveTexture": {
        "index": 0
      },
      "name": "fullmesh",
      "normalTexture": {
        "index": 2
      },
      "occlusionTexture": {
        "index": 1
      },
      "pbrMetallicRoughness": {
        "baseColorTexture": {
          "index": 0
        },
        "metallicRoughnessTexture": {
          "index": 1
        }
      }
    }
  ],
  "meshes": [
    {
      "name": "defaultMaterial",
      "primitives": [
        {
          "attributes": {
            "NORMAL": 1,
            "POSITION": 0,
            "TANGENT": 2,
            "TEXCOORD_0": 3
          },
          "indices": 4,
          "material": 0,
          "mode": 4
        }
      ]
    }
  ],
  "nodes": [
    {
      "children": [
        1
      ],
      "matrix": [
        1.0,
        0.0,
        0.0,
        0.0,
        0.0,
        -1.0,
        -4.440892098500626e-16,
        0.0,
        0.0,
        4.440892098500626e-16,
        -1.0,
        0.0,
        0.0,
        0.42100679874420155,
        0.5785048604011537,
        1.0
      ],
      "name": "Sketchfab_model"
    },
    {
      "children": [
        2
      ],
      "matrix": [
        1.0,
        0.0,
        0.0,
        0.0,
        0.0,
        -4.371139006309477e-08,
        0.999999999999999,
        0.0,
        0.0,
        -0.999999999999999,
        -4.371139006309477e-08,
        0.0,
        0.0,
        0.0,
        0.0,
        1.0
      ],
      "name": "Collada visual scene group"
    },
    {
      "children": [
        3
      ],
      "name": "fullmesh"
    },
    {
      "mesh": 0,
      "name": "defaultMaterial"
    }
  ],
  "samplers": [
    {
      "magFilter": 9729,
      "minFilter": 9987,
      "wrapS": 10497,
      "wrapT": 10497
    }
  ],
  "scene": 0,
  "scenes": [
    {
      "name": "Sketchfab_Scene",
      "nodes": [
        0
      ]
    }
  ],
  "textures": [
    {
      "sampler": 0,
      "source": 0
    },
    {
      "sampler": 0,
      "source": 1
    },
    {
      "sampler": 0,
      "source": 2
    }
  ]
}
